<svg xmlns="http://www.w3.org/2000/svg" width="70" height="76" fill="none"><g clip-path="url(#a)"><path fill="#212121" d="m67.316 52.661-18.47-19.955 2.05-10.829a4.38 4.38 0 0 0 1.66.342h.014c2.608.033 4.747-2.208 4.778-5.006.03-2.797-2.059-5.091-4.667-5.125-2.608-.032-4.747 2.208-4.778 5.006a5.396 5.396 0 0 0 .273 1.757l-10.85 1.42L19.628 1.19a1.13 1.13 0 0 0-.824-.375c-.306.001-.6.132-.817.364L14.68 4.707a1.317 1.317 0 0 0 0 1.77l1.78 1.937c-6.897 13.603-4.657 30.45 5.511 41.442.094.096.202.173.32.229a7.774 7.774 0 0 0-.114 1.284v14.515h-14c-3.22.004-5.83 2.803-5.834 6.257v2.503c0 .69.523 1.251 1.167 1.251h53.667c.644 0 1.166-.56 1.166-1.251V72.14c-.003-3.454-2.613-6.253-5.833-6.257h-14v-6.433c2.193.494 4.428.745 6.669.751 5.377-.006 10.668-1.444 15.4-4.184l1.79 1.93c.216.238.513.373.823.376.306-.002.6-.133.817-.364l3.308-3.53a1.317 1.317 0 0 0 0-1.769ZM50.925 15.44a2.223 2.223 0 0 1 3.3.01c.908.98.904 2.564-.01 3.539a2.256 2.256 0 0 1-1.646.728h-.007c-1.288-.007-2.328-1.133-2.32-2.516.003-.661.25-1.294.687-1.761h-.004Zm-2.747 8.223-1.309 6.91-2.571-2.773 3.88-4.137Zm-1.325-2.116-4.2 4.478-3.25-3.504 7.45-.974Zm5.656 46.841c1.933 0 3.5 1.68 3.5 3.754v1.251H4.676v-1.25c0-2.074 1.567-3.755 3.5-3.755h44.333Zm-16.333-5.005v2.502H24.509v-2.502h11.667Zm-11.667-2.503v-9.51c0-3.036 2.617-5.506 5.833-5.506 3.217 0 5.834 2.47 5.834 5.506v9.51H24.509Zm14-3.98v-5.53c0-4.416-3.663-8.009-8.167-8.009-2.911-.048-5.634 1.542-7.177 4.191-8.876-10.028-10.875-24.977-4.985-37.276l40.692 43.896c-6.283 3.428-13.486 4.393-20.363 2.729Zm24.695-1.604-1.644-1.773L18.792 7.374 17.142 5.6l1.65-1.765L36.15 22.558c.008 0 .013.016.021.022l28.688 30.951-1.655 1.764Z"/><path fill="#2196F3" d="M30.353 48.365h-.01c-1.934-.003-3.503 1.676-3.506 3.749-.003 2.073 1.562 3.757 3.495 3.76h.01c1.933.003 3.503-1.675 3.505-3.749.003-2.073-1.561-3.756-3.494-3.76Zm.816 4.642c-.22.234-.517.365-.827.364-.644-.004-1.164-.567-1.16-1.258a1.3 1.3 0 0 1 .344-.88c.217-.232.51-.363.816-.365.645.004 1.164.567 1.16 1.258 0 .33-.124.647-.343.88h.01Z"/></g><defs><clipPath id="a"><path fill="#fff" d="M0 .815h70v75.08H0z"/></clipPath></defs></svg>