<svg xmlns="http://www.w3.org/2000/svg" width="70" height="76" fill="none"><g clip-path="url(#a)"><path fill="#2196F3" d="M32.65 35.925h2.332v11.257H32.65V35.925ZM41.978 40.928h2.332v6.254h-2.332v-6.254ZM23.321 44.68h2.332v2.502h-2.332V44.68ZM16.325 43.43h2.332v3.752h-2.332V43.43Z"/><path fill="#212121" d="M3.498 67.193h55.97c1.933 0 3.499-1.68 3.499-3.752v-5.003c0-2.072-1.566-3.752-3.498-3.752h-1.166v-31.19l6.623-6.73c1.537.813 3.398.32 4.404-1.17 1.007-1.489.866-3.539-.333-4.853-1.2-1.314-3.107-1.51-4.517-.464-1.41 1.047-1.911 3.03-1.187 4.697l-4.99 5.075v-2.886c0-2.072-1.566-3.752-3.498-3.752H8.162c-1.931 0-3.498 1.68-3.498 3.752v37.52H3.498C1.566 54.686 0 56.366 0 58.439v5.003c0 2.072 1.566 3.752 3.498 3.752Zm62.967-55.03c.644 0 1.166.56 1.166 1.25s-.522 1.25-1.166 1.25c-.644 0-1.166-.56-1.166-1.25s.522-1.25 1.166-1.25ZM6.996 17.164c0-.69.522-1.25 1.166-1.25h46.643c.644 0 1.166.56 1.166 1.25v5.253l-2.332 2.377v-5.128c0-.691-.523-1.251-1.167-1.251H10.495c-.644 0-1.167.56-1.167 1.25v31.268c0 .69.523 1.25 1.167 1.25h41.977c.645 0 1.167-.56 1.167-1.25V28.235l2.332-2.37v28.82H6.996v-37.52Zm10.495 16.26c-1.578-.006-2.963 1.122-3.383 2.753-.42 1.63.23 3.361 1.587 4.225 1.356.863 3.084.646 4.218-.53l4.053 2.18c.471.254 1.042.135 1.392-.287l8.616-10.397 8.47 6.807a1.108 1.108 0 0 0 1.501-.092l7.361-7.479v19.078H11.661V20.917h39.645v6.242l-8.25 8.38-8.54-6.868a1.112 1.112 0 0 0-1.572.17L24.21 39.38l-3.265-1.751c.023-.15.038-.302.044-.454 0-2.072-1.566-3.752-3.498-3.752Zm1.166 3.751c0 .69-.522 1.25-1.166 1.25-.644 0-1.166-.56-1.166-1.25s.522-1.25 1.166-1.25c.644 0 1.166.56 1.166 1.25Zm6.996 20.011h11.66v1.251c0 .69-.521 1.25-1.165 1.25h-9.329c-.644 0-1.166-.56-1.166-1.25v-1.25Zm-23.32 1.251c0-.69.521-1.25 1.165-1.25h19.823v1.25c0 2.072 1.566 3.752 3.498 3.752h9.329c1.932 0 3.498-1.68 3.498-3.752v-1.25h19.823c.644 0 1.166.56 1.166 1.25v5.003c0 .69-.522 1.25-1.166 1.25H3.499c-.645 0-1.167-.56-1.167-1.25v-5.003Z"/></g><defs><clipPath id="a"><path fill="#fff" d="M0 .815h70v75.08H0z"/></clipPath></defs></svg>