<svg xmlns="http://www.w3.org/2000/svg" width="106" height="62" fill="none"><path fill="#AFB1B8" fill-rule="evenodd" d="m38 7.794 7.008 6.634L32 14.42v32.187h34V34.301l7 6.627V7.794H38Zm27.692 25.728-19.87-18.81h19.87v18.81Zm-6.169 8.377H37.38V20.252h1.565v20.181h20.578V41.9ZM42.61 50.893l-.818 1.684-.818-1.684h-.686l1.194 2.246v1.308h.62V53.14l1.191-2.246h-.683Zm1.028 3.554.288-.827h1.377l.29.828h.645l-1.345-3.555h-.555l-1.342 3.554h.642Zm.976-2.8.515 1.475h-1.03l.515-1.475Zm3.257 1.39a.808.808 0 0 0-.134.451c0 .3.105.543.315.73.211.186.493.278.844.278.352 0 .655-.095.909-.285l.2.236h.688l-.522-.617c.205-.28.307-.639.307-1.077h-.515c0 .24-.05.457-.149.652l-.686-.81.242-.176a1.34 1.34 0 0 0 .369-.371.785.785 0 0 0 .112-.41.732.732 0 0 0-.249-.564.895.895 0 0 0-.635-.23c-.286 0-.514.081-.683.244-.17.161-.254.381-.254.66 0 .113.027.231.08.353.056.122.153.27.29.445-.263.188-.44.352-.529.49Zm1.604.785a.905.905 0 0 1-.561.2.585.585 0 0 1-.425-.153.533.533 0 0 1-.159-.4c0-.19.098-.36.293-.508l.076-.054.776.916Zm-.637-1.574c-.168-.207-.252-.379-.252-.515 0-.12.035-.218.103-.296a.348.348 0 0 1 .276-.117.37.37 0 0 1 .266.1c.07.065.105.144.105.237a.44.44 0 0 1-.151.344l-.076.061-.271.186Zm5.786 1.931c.244-.213.384-.51.42-.889h-.615c-.033.254-.11.436-.232.545-.122.109-.305.163-.547.163-.265 0-.467-.1-.605-.302-.137-.202-.206-.495-.206-.88v-.314c.004-.38.077-.667.22-.862.145-.197.352-.296.62-.296.231 0 .406.057.525.171.12.113.195.297.225.552h.615c-.04-.389-.178-.69-.417-.903-.24-.213-.555-.32-.948-.32-.291 0-.548.07-.771.207a1.346 1.346 0 0 0-.51.591 2.082 2.082 0 0 0-.179.887v.332c.005.327.066.614.183.861.118.248.284.44.498.574.217.134.467.2.75.2.405 0 .73-.105.974-.317Zm3.63-.498c.12-.264.181-.57.181-.918v-.198a2.149 2.149 0 0 0-.185-.91 1.356 1.356 0 0 0-.52-.601c-.224-.14-.48-.21-.77-.21-.29 0-.546.07-.771.212-.223.14-.396.343-.52.608a2.174 2.174 0 0 0-.183.918v.2c.002.34.063.64.185.901.124.26.298.462.523.603.226.14.483.21.771.21.292 0 .549-.07.772-.21.224-.141.397-.343.517-.605Zm-.661-2.01c.15.21.224.513.224.906v.186c0 .4-.074.705-.222.913-.146.208-.356.313-.63.313a.738.738 0 0 1-.634-.32c-.152-.213-.227-.515-.227-.906v-.205c.003-.383.08-.678.229-.886a.731.731 0 0 1 .627-.315c.274 0 .485.105.633.315Z" clip-rule="evenodd"/></svg>