<svg xmlns="http://www.w3.org/2000/svg" width="40" height="53" fill="none"><path fill="#AFB1B8" fill-rule="evenodd" d="M17.114 3.728h-.137a18.94 18.94 0 0 0-.63-.023h-.455c-.397 0-.802.01-1.204.03a.625.625 0 0 0-.091 0A28.275 28.275 0 0 0 4.08 6.42l-.432.208v22.141l1.012-.343c.888-.305 1.834-.58 2.813-.834a34.328 34.328 0 0 1 8.095-1.076v2.91a23.25 23.25 0 0 0-1.065.03h-.084a32.36 32.36 0 0 0-6.228.956 31.634 31.634 0 0 0-7.42 2.891V4.906A29.727 29.727 0 0 1 8.557 1.74a29.793 29.793 0 0 1 7.336-.946h.427c.511.012 1.01.035 1.478.07a21.09 21.09 0 0 1 3.655.583v2.864a22.623 22.623 0 0 0-3.614-.54 8.37 8.37 0 0 0-.724-.043Zm5.039 2.927a26.09 26.09 0 0 0 1.958.071 31.467 31.467 0 0 0 7.713-.989 31.777 31.777 0 0 0 7.417-2.894v27.89a29.815 29.815 0 0 1-7.786 3.167 29.943 29.943 0 0 1-7.337.943 22.405 22.405 0 0 1-5.565-.656V6.116c.43.1.873.19 1.323.267.739.125 1.518.216 2.277.272Zm14.194.216-1.012.341a44.56 44.56 0 0 1-2.813.842 34.263 34.263 0 0 1-8.406 1.078c-.66 0-1.267-.018-1.854-.056l-.807-.053v22.776l.693.061c.642.056 1.305.084 1.973.084a26.884 26.884 0 0 0 6.62-.857 27.764 27.764 0 0 0 5.173-1.858l.433-.209V6.871Z" clip-rule="evenodd"/><path fill="#AFB1B8" d="M2.737 43.006a1.492 1.492 0 0 0-1.126-.455 1.673 1.673 0 0 0-.65.122 1.463 1.463 0 0 0-.832.842c-.08.2-.119.413-.116.628v3.794c-.01.267.042.533.149.778.09.194.219.368.38.508.151.128.329.22.52.27.185.052.376.078.567.079.211.002.42-.043.612-.132a1.599 1.599 0 0 0 .96-1.465v-.425h-.993v.339a.881.881 0 0 1-.058.338.608.608 0 0 1-.144.213.697.697 0 0 1-.415.145.503.503 0 0 1-.465-.203.899.899 0 0 1-.132-.509v-3.537c-.006-.196.036-.39.122-.567a.507.507 0 0 1 .485-.229.527.527 0 0 1 .443.214.806.806 0 0 1 .164.508v.328h.982v-.386a1.788 1.788 0 0 0-.121-.664 1.562 1.562 0 0 0-.332-.534Zm5.892-.043a1.765 1.765 0 0 0-1.128-.417c-.202 0-.403.037-.592.107a1.559 1.559 0 0 0-.908.842c-.1.231-.15.482-.145.734v3.64c-.006.255.043.51.145.744.09.196.22.37.384.509.152.14.33.25.524.32.19.07.39.106.592.107a1.714 1.714 0 0 0 1.128-.427c.158-.142.286-.315.374-.509.102-.235.151-.489.145-.745V44.23a1.77 1.77 0 0 0-.145-.735 1.643 1.643 0 0 0-.374-.531Zm-.463 4.905a.654.654 0 0 1-.197.526.727.727 0 0 1-.934 0 .652.652 0 0 1-.197-.526V44.23a.654.654 0 0 1 .197-.526.727.727 0 0 1 .934 0 .651.651 0 0 1 .197.526v3.64Zm8.201 1.625v-6.889h-.953l-1.253 3.647h-.017l-1.263-3.647h-.943v6.89h.984v-4.192h.018l.963 2.963h.491l.972-2.963h.017v4.191h.984Zm5.591-6.406a1.365 1.365 0 0 0-.556-.376 2.184 2.184 0 0 0-.714-.107h-1.462v6.889h.982v-2.69h.505a1.79 1.79 0 0 0 .886-.189 1.43 1.43 0 0 0 .539-.526c.113-.183.19-.387.225-.6a4.9 4.9 0 0 0 .053-.783 3.919 3.919 0 0 0-.096-.984 1.466 1.466 0 0 0-.362-.634Zm-.506 2.1a.867.867 0 0 1-.091.36.552.552 0 0 1-.253.24 1.006 1.006 0 0 1-.463.087h-.448v-2.342h.506a.942.942 0 0 1 .443.087.556.556 0 0 1 .23.254 1 1 0 0 1 .086.384v.458c0 .16.01.325 0 .473h-.01Zm5.156-2.583h-.805l-1.518 6.89h.982l.288-1.48h1.338l.289 1.48h.982l-1.556-6.89Zm-.906 4.47.483-2.496h.018l.48 2.497h-.981Zm7.248-.32h-.018l-1.482-4.15h-.944v6.89h.982V45.35h.02l1.5 4.142h.923v-6.889h-.981v4.15Zm5.998-4.15-.79 2.74h-.02l-.79-2.74H36.31l1.348 3.977v2.912h.982v-2.912l1.348-3.977h-1.04ZM0 51.438h.473v1.328h.321v-1.328h.47v-.272H0v.272Zm3.977-.272-.62 1.6h.341l.132-.364h.637l.137.364h.35l-.636-1.6h-.341Zm-.05.966.217-.592.217.592h-.435Zm3.981.044h.37v.206a.613.613 0 0 1-.38.135.404.404 0 0 1-.34-.153.669.669 0 0 1-.118-.417c0-.356.154-.534.46-.534a.337.337 0 0 1 .362.254l.316-.06c-.068-.314-.293-.471-.678-.471a.804.804 0 0 0-.559.206.78.78 0 0 0-.23.615.873.873 0 0 0 .205.6.776.776 0 0 0 .607.234.96.96 0 0 0 .678-.254v-.63h-.693v.269Zm4.015-1.01h-.324v1.6h1.12v-.273h-.796v-1.327Zm3.395 0h-.324v1.6h.324v-1.6Zm3.319 1.068-.656-1.068h-.313v1.6h.3V51.72l.643 1.045h.322v-1.6h-.296v1.068Zm3-.173h.797v-.272h-.797v-.35h.857v-.273h-1.181v1.6h1.214v-.273h-.89v-.432Zm7.275-.264h-.63v-.63h-.32v1.599h.32v-.7h.63v.7h.322v-1.6h-.322v.63Zm3.018.264h.8v-.272h-.8v-.35h.86v-.273h-1.18v1.6h1.212v-.273h-.89v-.432Zm4.093 0c.278-.043.42-.19.42-.445a.383.383 0 0 0-.157-.356.905.905 0 0 0-.468-.094h-.678v1.6h.322v-.67h.063a.431.431 0 0 1 .2.037.333.333 0 0 1 .114.116l.349.51h.384l-.195-.314a1.115 1.115 0 0 0-.354-.384Zm-.324-.22h-.237v-.403h.253a.84.84 0 0 1 .326.038.21.21 0 0 1-.015.326.913.913 0 0 1-.327.038Zm3.411.22h.796v-.272h-.796v-.35h.86v-.273h-1.184v1.6H40v-.273h-.89v-.432Z"/></svg>