<svg xmlns="http://www.w3.org/2000/svg" width="70" height="76" fill="none"><path fill="#2196F3" d="M69.943 11.43c-.137-.453-.501-.783-.941-.852l-4.18-.652-1.87-4.062c-.391-.856-1.7-.856-2.091 0l-1.87 4.062-4.18.652c-.44.07-.803.398-.942.851-.137.453-.024.951.295 1.283l3.025 3.162-.714 4.465c-.075.47.105.944.463 1.224.363.283.837.318 1.23.095l3.738-2.109 3.738 2.109a1.104 1.104 0 0 0 1.23-.095c.36-.28.539-.755.463-1.224l-.714-4.465 3.025-3.162a1.32 1.32 0 0 0 .295-1.283Zm-5.387 3.113c-.275.286-.4.702-.335 1.107l.417 2.614-2.188-1.234a1.102 1.102 0 0 0-1.088 0l-2.188 1.234.417-2.614a1.31 1.31 0 0 0-.334-1.107l-1.773-1.852 2.448-.382c.38-.059.708-.315.879-.685l1.094-2.377 1.094 2.377c.17.37.498.626.879.685l2.448.382-1.77 1.852ZM57.167 48.965h-2.333v2.503h2.333v-2.503ZM57.167 53.97h-2.333v2.504h2.333V53.97ZM59.5 51.468h-2.333v2.503H59.5v-2.503ZM54.834 51.468H52.5v2.503h2.334v-2.503ZM49 62.73h-2.333v2.503H49V62.73ZM49 67.736h-2.333v2.502H49v-2.502ZM51.334 65.233H49v2.503h2.334v-2.503ZM46.667 65.233h-2.334v2.503h2.334v-2.503ZM35 57.725h-2.333v2.503H35v-2.503ZM35 62.73h-2.333v2.503H35V62.73ZM37.333 60.227H35v2.503h2.333v-2.503ZM32.667 60.227h-2.334v2.503h2.334v-2.503ZM12.833 15.178H10.5v2.503h2.333v-2.503ZM12.833 20.184H10.5v2.503h2.333v-2.503ZM15.166 17.681h-2.333v2.503h2.333V17.68ZM10.5 17.681H8.166v2.503H10.5V17.68Z"/><path fill="#212121" d="M54.063 34.036c-.628-.91-1.551-1.495-2.599-1.653-1.052-.16-2.09.137-2.93.826l-2.739 2.251-.001.002-4.151 3.325-2.97-1.27c5.296-2.548 8.998-8.23 8.998-14.828 0-8.97-6.83-16.268-15.227-16.268S17.216 13.72 17.216 22.69c0 3.251.907 6.274 2.45 8.818l-6.046-.056h-.01c-.019 0-.034.01-.051.011-.116.005-.23.03-.34.073-.028.011-.057.017-.084.031-.014.006-.028.008-.042.015l-7.072 3.745c-.001 0-.003 0-.003.002l-4.141 2.136a.888.888 0 0 0-.138.082C.088 38.726-.474 41.04.43 42.932c.482 1.006 1.302 1.747 2.31 2.086.389.13.785.194 1.18.194.633 0 1.26-.166 1.836-.495l3.036-1.732 4.952-2.743 2.968-.019L4.808 52.93c0 .002-.002.002-.003.003L1.877 56.06a4.015 4.015 0 0 0-1.073 2.763c0 1.044.38 2.026 1.073 2.766a3.524 3.524 0 0 0 2.579 1.139c.936 0 1.869-.38 2.582-1.139l2.875-3.07 3.808-3.05 1.97 2.104-3.853 4.116-.004.002-2.928 3.129a4.015 4.015 0 0 0-1.073 2.763c0 1.044.38 2.026 1.073 2.766a3.527 3.527 0 0 0 2.58 1.138c.935 0 1.87-.38 2.582-1.138l2.93-3.129 4.686-5.005.002-.004 2.21-2.346-.01-.01c.015-.014.035-.02.049-.035l11.3-13.276 7.593 1.159c.055.008.11.012.165.012.14 0 .277-.036.41-.09.038-.015.071-.035.108-.055.042-.023.086-.035.126-.064l7.029-5.005c.026-.019.04-.049.064-.069.028-.024.063-.034.089-.06l2.78-2.794c1.448-1.455 1.648-3.837.465-5.542ZM4.66 42.508c-.379.218-.81.262-1.221.121a1.598 1.598 0 0 1-.934-.84c-.352-.735-.148-1.631.47-2.115l2.873-1.483.692 2.168.29.911-2.17 1.238Zm7.65-4.288-3.387 1.877-.558-1.752-.402-1.26 4.434-2.347-.087 3.482Zm33.03-15.534c0 2.155-.48 4.188-1.31 6.006l-9.147-4.456c-.096-1.346-.746-2.523-1.724-3.256l3.203-11.404c5.2 1.774 8.978 6.979 8.978 13.11Zm-25.788 0c0-7.59 5.784-13.765 12.894-13.765.553 0 1.094.05 1.63.123l-3.133 11.154c-.042-.002-.081-.014-.125-.014-2.258 0-4.096 1.964-4.096 4.38 0 2.415 1.838 4.38 4.096 4.38 1.52 0 2.832-.9 3.54-2.217l8.45 4.117c-2.352 3.394-6.114 5.608-10.362 5.608-7.11 0-12.894-6.176-12.894-13.765Zm13.03 1.878c0 1.034-.792 1.877-1.764 1.877-.971 0-1.762-.843-1.762-1.877 0-1.035.79-1.878 1.762-1.878s1.763.843 1.763 1.878Zm-27.19 35.25a1.268 1.268 0 0 1-1.87.002 1.446 1.446 0 0 1-.384-.993c0-.373.136-.724.385-.988l2.104-2.249 1.862 1.989-2.097 2.24Zm7.03 8.76c-.517.55-1.354.55-1.87.001a1.446 1.446 0 0 1-.385-.992c0-.373.136-.724.385-.988l2.106-2.25.88.94.983 1.048-2.099 2.241Zm7.616-8.139-.003.003-3.86 4.13-.882-.94-.982-1.05 3.857-4.117v-.002l.004-.002a1.23 1.23 0 0 0 .196-.318c.015-.033.044-.06.057-.094.036-.096.042-.2.056-.302.007-.057.03-.11.03-.17 0-.084-.028-.165-.044-.248-.014-.075-.014-.151-.041-.224a1.263 1.263 0 0 0-.2-.322c-.022-.028-.03-.063-.054-.09h-.002s0-.003-.002-.004l-3.515-3.754c-.037-.04-.085-.057-.127-.09a1.114 1.114 0 0 0-.19-.136 1.043 1.043 0 0 0-.204-.076 1.066 1.066 0 0 0-.226-.046 1.06 1.06 0 0 0-.209.011c-.078.01-.151.021-.227.047a1.043 1.043 0 0 0-.206.106c-.044.026-.093.035-.133.067L9.25 55.92l-1.97-2.105 5.248-5.598 9.538 10.062-2.029 2.156Zm14.917-16.463c-.034-.005-.066.009-.1.006a1.069 1.069 0 0 0-.252.017c-.066.012-.13.026-.192.05a1.05 1.05 0 0 0-.211.11 1.13 1.13 0 0 0-.182.144c-.028.026-.062.039-.088.069L23.653 56.44l-9.468-9.987 6.197-6.613c.457-.488.46-1.28.004-1.77a1.128 1.128 0 0 0-.834-.367v-.001l-4.854.031.061-3.771 6.79.062c2.768 3.036 6.627 4.93 10.897 4.93.957 0 1.89-.107 2.799-.288.087.075.174.15.283.198l5.272 2.253.333 1.78.39 2.076-6.569-1.002Zm8.84.418-.685-3.655 3.164-2.534.828 1.179 1.242 1.769-4.55 3.241Zm8.21-6.642-1.832 1.842-2.037-2.9 1.818-1.496c.34-.28.768-.394 1.188-.335.422.063.796.3 1.05.666.474.685.393 1.64-.187 2.223Z"/><path fill="#212121" d="m29.755 44.324-4.688-5.006a1.11 1.11 0 0 0-1.646 0l-4.687 5.006c-.22.236-.343.554-.343.887 0 .333.123.652.343.887l4.686 5.006c.228.242.527.364.824.364.298 0 .596-.122.823-.364l4.688-5.006c.219-.235.344-.554.344-.887 0-.333-.124-.652-.345-.887Zm-5.51 4.127-3.034-3.24 3.033-3.24 3.035 3.24-3.035 3.24ZM37.547 12.712l-.564 2.43c.156.042 3.801 1.06 3.801 5.042h2.334c0-4.733-3.644-6.958-5.571-7.472ZM43.118 22.686h-2.334v2.503h2.334v-2.503Z"/></svg>